<?xml version="1.0" encoding="utf-8"?>
<!-- Generator: Adobe Illustrator 24.3.0, SVG Export Plug-In . SVG Version: 6.00 Build 0)  -->
<svg version="1.1" id="Layer_1" xmlns="http://www.w3.org/2000/svg" xmlns:xlink="http://www.w3.org/1999/xlink" x="0px" y="0px"
	 viewBox="0 0 3000 1859.65" style="enable-background:new 0 0 3000 1859.65;" xml:space="preserve">
<style type="text/css">
	.st0{fill:url(#SVGID_1_);}
	.st1{fill:url(#SVGID_2_);}
	.st2{fill:url(#SVGID_3_);}
	.st3{fill:url(#SVGID_4_);}
	.st4{fill:url(#SVGID_5_);}
	.st5{fill:url(#SVGID_6_);}
	.st6{fill:url(#SVGID_7_);}
	.st7{fill:url(#SVGID_8_);}
	.st8{fill:url(#SVGID_9_);}
	.st9{fill:url(#SVGID_10_);}
	.st10{fill:url(#SVGID_11_);}
	.st11{fill:url(#SVGID_12_);}
	.st12{fill:url(#SVGID_13_);}
	.st13{fill:url(#SVGID_14_);}
	.st14{fill:url(#SVGID_15_);}
	.st15{fill:url(#SVGID_16_);}
	.st16{fill:url(#SVGID_17_);}
	.st17{fill:url(#SVGID_18_);}
	.st18{fill:url(#SVGID_19_);}
	.st19{fill:url(#SVGID_20_);}
	.st20{fill:url(#SVGID_21_);}
	.st21{fill:url(#SVGID_22_);}
	.st22{fill:url(#SVGID_23_);}
	.st23{fill:url(#SVGID_24_);}
	.st24{fill:url(#SVGID_25_);}
	.st25{fill:url(#SVGID_26_);}
	.st26{fill:url(#SVGID_27_);}
	.st27{fill:url(#SVGID_28_);}
	.st28{fill:url(#SVGID_29_);}
</style>
<g>
	<g>
		<linearGradient id="SVGID_1_" gradientUnits="userSpaceOnUse" x1="1428.2986" y1="1010.704" x2="1109.2089" y2="826.4776">
			<stop  offset="0" style="stop-color:#3F2118"/>
			<stop  offset="0.0839" style="stop-color:#634132"/>
			<stop  offset="0.1803" style="stop-color:#8D664E"/>
			<stop  offset="0.2728" style="stop-color:#B58866"/>
			<stop  offset="0.3589" style="stop-color:#D4A579"/>
			<stop  offset="0.4362" style="stop-color:#E9B886"/>
			<stop  offset="0.4972" style="stop-color:#F4C18B"/>
			<stop  offset="0.5706" style="stop-color:#EBB987"/>
			<stop  offset="0.6468" style="stop-color:#DAAA7D"/>
			<stop  offset="0.7242" style="stop-color:#C0926D"/>
			<stop  offset="0.8024" style="stop-color:#9F7559"/>
			<stop  offset="0.8813" style="stop-color:#795441"/>
			<stop  offset="0.9598" style="stop-color:#533327"/>
			<stop  offset="1" style="stop-color:#3F2118"/>
		</linearGradient>
		<path class="st0" d="M1211.2,649.82v495.76c31.39,6.71,62.42,9.8,91.28,9.8c14.52,0,29.03-0.73,43.55-2.18V702.99
			c-13.79-5.44-27.58-10.71-41.37-16.15C1273.81,674.86,1242.41,662.71,1211.2,649.82z"/>
		<linearGradient id="SVGID_2_" gradientUnits="userSpaceOnUse" x1="1467.5323" y1="530.7203" x2="915.3839" y2="211.9372">
			<stop  offset="0" style="stop-color:#3F2118"/>
			<stop  offset="0.0839" style="stop-color:#634132"/>
			<stop  offset="0.1803" style="stop-color:#8D664E"/>
			<stop  offset="0.2728" style="stop-color:#B58866"/>
			<stop  offset="0.3589" style="stop-color:#D4A579"/>
			<stop  offset="0.4362" style="stop-color:#E9B886"/>
			<stop  offset="0.4972" style="stop-color:#F4C18B"/>
			<stop  offset="0.5706" style="stop-color:#EBB987"/>
			<stop  offset="0.6468" style="stop-color:#DAAA7D"/>
			<stop  offset="0.7242" style="stop-color:#C0926D"/>
			<stop  offset="0.8024" style="stop-color:#9F7559"/>
			<stop  offset="0.8813" style="stop-color:#795441"/>
			<stop  offset="0.9598" style="stop-color:#533327"/>
			<stop  offset="1" style="stop-color:#3F2118"/>
		</linearGradient>
		<path class="st1" d="M1375.97,675.77c2.18,0.73,4.17,1.63,6.35,2.54V520.08c-2.18-0.73-4.35-1.63-6.35-2.36
			c-9.98-3.81-19.96-7.62-29.94-11.25c-0.36-0.18-0.91-0.36-1.27-0.54c-46.09-17.42-91.46-34.48-133.56-53.17
			c-12.34-5.26-24.5-10.89-36.29-16.69c-101.44-49.9-175.29-112.51-175.29-216.3c0-65.51,34.3-115.77,84.56-149.71h-66.6
			C954.79,123.76,913.6,200.16,913.6,298.33c0,150.07,117.77,232.09,261.31,296.33c11.98,5.44,24.13,10.71,36.29,15.79
			c34.84,14.7,70.77,28.67,106.52,42.46c9.44,3.63,18.87,7.26,28.31,10.89C1356.19,667.79,1366.17,671.78,1375.97,675.77z"/>
		<linearGradient id="SVGID_3_" gradientUnits="userSpaceOnUse" x1="1561.9955" y1="70.3157" x2="1560.3563" y2="69.3693">
			<stop  offset="0" style="stop-color:#3F2118"/>
			<stop  offset="0.0839" style="stop-color:#634132"/>
			<stop  offset="0.1803" style="stop-color:#8D664E"/>
			<stop  offset="0.2728" style="stop-color:#B58866"/>
			<stop  offset="0.3589" style="stop-color:#D4A579"/>
			<stop  offset="0.4362" style="stop-color:#E9B886"/>
			<stop  offset="0.4972" style="stop-color:#F4C18B"/>
			<stop  offset="0.5706" style="stop-color:#EBB987"/>
			<stop  offset="0.6468" style="stop-color:#DAAA7D"/>
			<stop  offset="0.7242" style="stop-color:#C0926D"/>
			<stop  offset="0.8024" style="stop-color:#9F7559"/>
			<stop  offset="0.8813" style="stop-color:#795441"/>
			<stop  offset="0.9598" style="stop-color:#533327"/>
			<stop  offset="1" style="stop-color:#3F2118"/>
		</linearGradient>
		<path class="st2" d="M1560.7,68.78c-0.18,0.36-0.36,0.91-0.54,1.27h2C1561.61,69.5,1561.24,69.14,1560.7,68.78z"/>
		<linearGradient id="SVGID_4_" gradientUnits="userSpaceOnUse" x1="1643.8701" y1="1093.9943" x2="970.4617" y2="705.2018">
			<stop  offset="0" style="stop-color:#3F2118"/>
			<stop  offset="0.0839" style="stop-color:#634132"/>
			<stop  offset="0.1803" style="stop-color:#8D664E"/>
			<stop  offset="0.2728" style="stop-color:#B58866"/>
			<stop  offset="0.3589" style="stop-color:#D4A579"/>
			<stop  offset="0.4362" style="stop-color:#E9B886"/>
			<stop  offset="0.4972" style="stop-color:#F4C18B"/>
			<stop  offset="0.5706" style="stop-color:#EBB987"/>
			<stop  offset="0.6468" style="stop-color:#DAAA7D"/>
			<stop  offset="0.7242" style="stop-color:#C0926D"/>
			<stop  offset="0.8024" style="stop-color:#9F7559"/>
			<stop  offset="0.8813" style="stop-color:#795441"/>
			<stop  offset="0.9598" style="stop-color:#533327"/>
			<stop  offset="1" style="stop-color:#3F2118"/>
		</linearGradient>
		<path class="st3" d="M1588.83,1137.96c81.84-64.96,137.37-162.59,137.37-296.15c0-81.84-35.2-142.27-90-189.81h-50.99v135.37
			c37.38,33.21,60.06,72.22,60.06,120.67c0,70.04-22.86,126.3-60.06,169.67c-10.71,12.7-22.68,24.32-35.57,34.66
			c-39.01,31.58-86.74,53.35-137.37,66.05c-9.8,2.36-19.96,4.54-29.94,6.35c-2.18,0.36-4.35,0.73-6.35,0.91
			c-9.98,1.63-19.96,2.9-29.94,3.81c-14.52,1.45-29.03,2.18-43.55,2.18c-28.85,0-59.7-2.9-91.28-9.07
			c-11.98-2.36-24.13-5.26-36.29-8.53c-112.15-31.21-225.38-106.34-276.91-246.61l-3.27-9.07l-63.69,28.31l2.9,7.98
			c50.99,141.9,179.47,242.25,340.97,272.92c11.98,2.36,23.95,4.17,36.29,5.63v0.91h7.44c20.51,2.36,41.37,3.45,62.79,3.45
			c20.51,0,41.19-1.09,61.88-3.45h2.72v-0.36c9.98-1.09,19.96-2.54,29.94-4.35c2-0.36,4.17-0.73,6.35-1.09
			c9.98-1.81,20.14-3.99,29.94-6.53c52.08-12.52,101.98-33.21,146.08-61.88C1568.87,1153.02,1579.03,1145.76,1588.83,1137.96z"/>
		<linearGradient id="SVGID_5_" gradientUnits="userSpaceOnUse" x1="1956.1008" y1="366.2968" x2="959.1339" y2="-209.3023">
			<stop  offset="0" style="stop-color:#3F2118"/>
			<stop  offset="0.0839" style="stop-color:#634132"/>
			<stop  offset="0.1803" style="stop-color:#8D664E"/>
			<stop  offset="0.2728" style="stop-color:#B58866"/>
			<stop  offset="0.3589" style="stop-color:#D4A579"/>
			<stop  offset="0.4362" style="stop-color:#E9B886"/>
			<stop  offset="0.4972" style="stop-color:#F4C18B"/>
			<stop  offset="0.5706" style="stop-color:#EBB987"/>
			<stop  offset="0.6468" style="stop-color:#DAAA7D"/>
			<stop  offset="0.7242" style="stop-color:#C0926D"/>
			<stop  offset="0.8024" style="stop-color:#9F7559"/>
			<stop  offset="0.8813" style="stop-color:#795441"/>
			<stop  offset="0.9598" style="stop-color:#533327"/>
			<stop  offset="1" style="stop-color:#3F2118"/>
		</linearGradient>
		<path class="st4" d="M1211.2,413.37c41.01,18.69,86.92,36.29,134.83,54.44V33.75h26.31c1.09,0.36,2.36,0.73,3.63,1.09v-1.09
			h772.13V0H838.29v33.75h372.91V413.37z"/>
		<linearGradient id="SVGID_6_" gradientUnits="userSpaceOnUse" x1="1851.2391" y1="816.2032" x2="1198.9111" y2="439.5816">
			<stop  offset="0" style="stop-color:#3F2118"/>
			<stop  offset="0.0839" style="stop-color:#634132"/>
			<stop  offset="0.1803" style="stop-color:#8D664E"/>
			<stop  offset="0.2728" style="stop-color:#B58866"/>
			<stop  offset="0.3589" style="stop-color:#D4A579"/>
			<stop  offset="0.4362" style="stop-color:#E9B886"/>
			<stop  offset="0.4972" style="stop-color:#F4C18B"/>
			<stop  offset="0.5706" style="stop-color:#EBB987"/>
			<stop  offset="0.6468" style="stop-color:#DAAA7D"/>
			<stop  offset="0.7242" style="stop-color:#C0926D"/>
			<stop  offset="0.8024" style="stop-color:#9F7559"/>
			<stop  offset="0.8813" style="stop-color:#795441"/>
			<stop  offset="0.9598" style="stop-color:#533327"/>
			<stop  offset="1" style="stop-color:#3F2118"/>
		</linearGradient>
		<path class="st5" d="M1548.91,215.4v-64.42v-14.52c1.09-29.94,3.63-51.17,11.25-66.42h-104.52h-43.37v17.97v404.66v39.01v158.78
			v39.56v410.83c52.62-14.7,101.08-40.47,136.64-77.85v-258.4v-45v-143.9h38.47h61.52H1967v-33.93h-366.01h-52.08v-29.58V215.4z"/>
		<linearGradient id="SVGID_7_" gradientUnits="userSpaceOnUse" x1="2091.8689" y1="1367.6666" x2="1585.4501" y2="1075.2855">
			<stop  offset="0" style="stop-color:#3F2118"/>
			<stop  offset="0.0839" style="stop-color:#634132"/>
			<stop  offset="0.1803" style="stop-color:#8D664E"/>
			<stop  offset="0.2728" style="stop-color:#B58866"/>
			<stop  offset="0.3589" style="stop-color:#D4A579"/>
			<stop  offset="0.4362" style="stop-color:#E9B886"/>
			<stop  offset="0.4972" style="stop-color:#F4C18B"/>
			<stop  offset="0.5706" style="stop-color:#EBB987"/>
			<stop  offset="0.6468" style="stop-color:#DAAA7D"/>
			<stop  offset="0.7242" style="stop-color:#C0926D"/>
			<stop  offset="0.8024" style="stop-color:#9F7559"/>
			<stop  offset="0.8813" style="stop-color:#795441"/>
			<stop  offset="0.9598" style="stop-color:#533327"/>
			<stop  offset="1" style="stop-color:#3F2118"/>
		</linearGradient>
		<path class="st6" d="M1700.06,1200.38c-58.79,0-94.72-2.36-116.5-13.25c-27.94,18.87-58.25,34.48-89.82,47h675.23v-33.75H1700.06z
			"/>
	</g>
	<g>
		<g>
			<g>
				<linearGradient id="SVGID_8_" gradientUnits="userSpaceOnUse" x1="1343.1661" y1="1715.6091" x2="1116.0945" y2="1584.5093">
					<stop  offset="0" style="stop-color:#3F2118"/>
					<stop  offset="0.0839" style="stop-color:#634132"/>
					<stop  offset="0.1803" style="stop-color:#8D664E"/>
					<stop  offset="0.2728" style="stop-color:#B58866"/>
					<stop  offset="0.3589" style="stop-color:#D4A579"/>
					<stop  offset="0.4362" style="stop-color:#E9B886"/>
					<stop  offset="0.4972" style="stop-color:#F4C18B"/>
					<stop  offset="0.5706" style="stop-color:#EBB987"/>
					<stop  offset="0.6468" style="stop-color:#DAAA7D"/>
					<stop  offset="0.7242" style="stop-color:#C0926D"/>
					<stop  offset="0.8024" style="stop-color:#9F7559"/>
					<stop  offset="0.8813" style="stop-color:#795441"/>
					<stop  offset="0.9598" style="stop-color:#533327"/>
					<stop  offset="1" style="stop-color:#3F2118"/>
				</linearGradient>
				<path class="st7" d="M1005.43,1807.81c-2.17,3.8-9.23,4.88-10.86,1.63c-2.17-4.89,17.92-45.06,55.91-111.28
					c65.14-112.91,120.51-196.51,136.25-204.65c4.89-2.72,5.97-2.72,10.31-0.54c2.72,1.08,5.43,4.34,6.52,7.05
					c3.25,10.32-4.89,46.68-24.43,109.65c-16.28,52.11-33.11,111.82-31.48,112.91c0.54,0.54,7.6-7.06,37.99-41.8
					c25.52-29.31,43.97-48.85,102.6-109.11c42.88-44.51,59.71-60.25,90.1-85.76c22.26-18.46,28.77-22.26,36.91-22.26
					c14.12,0,11.95,13.57-8.68,55.37c-3.8,8.14-15.2,30.4-24.97,49.4c-16.83,32.57-57,113.99-63.51,128.64
					c-27.68,60.8-58.62,147.11-55.91,155.25c2.17,6.51-8.14,10.31-11.94,4.34c-2.71-3.8,1.63-21.71,16.28-65.14
					c19-55.91,49.4-123.76,106.4-235.59c29.85-58.62,39.62-79.79,36.36-79.79c-2.71,0-40.71,32.57-61.88,52.65
					c-36.91,34.74-117.79,119.42-175.34,184.02c-15.19,16.83-25.51,25.52-30.39,25.52c-4.35,0-8.69-4.89-8.69-10.32
					c0-8.68,17.37-75.45,30.94-119.42c7.6-23.34,15.2-49.39,17.37-58.08c4.89-19.54,9.23-43.96,7.6-43.96
					c-1.63,0-21.17,25.51-35.28,46.68c-15.74,23.34-70.57,113.45-97.16,159.59c-16.29,28.23-28.77,51.03-51.03,94.45V1807.81z"/>
				<linearGradient id="SVGID_9_" gradientUnits="userSpaceOnUse" x1="1461.6382" y1="1732.6553" x2="1370.3873" y2="1679.9717">
					<stop  offset="0" style="stop-color:#3F2118"/>
					<stop  offset="0.0839" style="stop-color:#634132"/>
					<stop  offset="0.1803" style="stop-color:#8D664E"/>
					<stop  offset="0.2728" style="stop-color:#B58866"/>
					<stop  offset="0.3589" style="stop-color:#D4A579"/>
					<stop  offset="0.4362" style="stop-color:#E9B886"/>
					<stop  offset="0.4972" style="stop-color:#F4C18B"/>
					<stop  offset="0.5706" style="stop-color:#EBB987"/>
					<stop  offset="0.6468" style="stop-color:#DAAA7D"/>
					<stop  offset="0.7242" style="stop-color:#C0926D"/>
					<stop  offset="0.8024" style="stop-color:#9F7559"/>
					<stop  offset="0.8813" style="stop-color:#795441"/>
					<stop  offset="0.9598" style="stop-color:#533327"/>
					<stop  offset="1" style="stop-color:#3F2118"/>
				</linearGradient>
				<path class="st8" d="M1466.72,1694.36c19.55-15.2,21.72-10.86,21.17-7.6c0,1.63-5.42,8.14-17.91,17.91
					c-40.17,31.49-67.85,43.43-91.73,39.63c-18.46-3.26-28.23-13.03-26.6-26.6c2.17-19,25.51-39.63,42.34-39.63
					c2.17,0,4.34,0.55,6.51,1.63c9.23,4.35,8.69,14.12-2.17,23.34c-5.97,5.43-12.48,6.52-19,7.06c-10.85,0.54-11.94-1.09-13.57,2.17
					c-1.08,2.17-1.63,6.52-1.08,9.77c0.54,8.69,7.6,13.03,21.17,13.03c18.99,0,43.42-12.48,80.33-41.25L1466.72,1694.36z
					 M1379.87,1692.73c-3.8,3.26-4.34,4.89-2.71,5.97c3.26,1.63,3.26,1.63,10.31-1.63c5.43-2.71,9.77-8.68,7.6-10.31
					c0,0-0.54,0-1.08,0c-2.72,0-9.23,3.26-14.66,7.6L1379.87,1692.73z"/>
				<linearGradient id="SVGID_10_" gradientUnits="userSpaceOnUse" x1="1629.3555" y1="1704.9037" x2="1504.0575" y2="1632.5629">
					<stop  offset="0" style="stop-color:#3F2118"/>
					<stop  offset="0.0839" style="stop-color:#634132"/>
					<stop  offset="0.1803" style="stop-color:#8D664E"/>
					<stop  offset="0.2728" style="stop-color:#B58866"/>
					<stop  offset="0.3589" style="stop-color:#D4A579"/>
					<stop  offset="0.4362" style="stop-color:#E9B886"/>
					<stop  offset="0.4972" style="stop-color:#F4C18B"/>
					<stop  offset="0.5706" style="stop-color:#EBB987"/>
					<stop  offset="0.6468" style="stop-color:#DAAA7D"/>
					<stop  offset="0.7242" style="stop-color:#C0926D"/>
					<stop  offset="0.8024" style="stop-color:#9F7559"/>
					<stop  offset="0.8813" style="stop-color:#795441"/>
					<stop  offset="0.9598" style="stop-color:#533327"/>
					<stop  offset="1" style="stop-color:#3F2118"/>
				</linearGradient>
				<path class="st9" d="M1637.14,1682.96c6.51,2.17,2.17,7.6-20.08,24.97c-42.34,32.57-60.26,41.8-77.08,39.08
					c-2.18-0.54-5.97-2.71-8.69-4.88c-4.34-3.8-4.88-5.43-4.88-17.92c0-10.31,1.62-17.91,5.42-28.22
					c8.15-21.72,8.15-21.72-2.71-8.14c-16.28,20.62-34.2,38.54-43.43,43.96c-15.74,8.69-29.85,5.43-29.85-7.05
					c0-13.57,15.74-38,29.31-45.6c9.23-5.43,16.29-4.89,24.43,1.63l6.51,5.43l11.4-15.74c10.86-14.66,26.06-36.92,56.45-83.05
					c11.4-17.38,16.29-23.35,20.09-23.35c1.08,0,2.17,0.55,3.25,1.09c4.35,2.71,3.8,4.88-3.79,16.28
					c-30.95,46.14-68.94,134.62-64.06,149.82c3.26,10.86,23.34,3.26,55.37-20.63c33.65-24.97,40.71-29.31,43.97-28.22
					L1637.14,1682.96z M1495.46,1709.56c12.48-13.03,12.48-13.57,9.77-17.91c-2.72-4.35-4.89-5.98-7.6-5.98
					c-1.09,0-2.72,0.55-4.35,1.09c-9.22,4.34-27.68,33.65-24.97,39.63c1.63,3.79,12.49-3.26,26.6-17.38L1495.46,1709.56z"/>
				<linearGradient id="SVGID_11_" gradientUnits="userSpaceOnUse" x1="1705.7278" y1="1743.0647" x2="1623.2546" y2="1695.4489">
					<stop  offset="0" style="stop-color:#3F2118"/>
					<stop  offset="0.0839" style="stop-color:#634132"/>
					<stop  offset="0.1803" style="stop-color:#8D664E"/>
					<stop  offset="0.2728" style="stop-color:#B58866"/>
					<stop  offset="0.3589" style="stop-color:#D4A579"/>
					<stop  offset="0.4362" style="stop-color:#E9B886"/>
					<stop  offset="0.4972" style="stop-color:#F4C18B"/>
					<stop  offset="0.5706" style="stop-color:#EBB987"/>
					<stop  offset="0.6468" style="stop-color:#DAAA7D"/>
					<stop  offset="0.7242" style="stop-color:#C0926D"/>
					<stop  offset="0.8024" style="stop-color:#9F7559"/>
					<stop  offset="0.8813" style="stop-color:#795441"/>
					<stop  offset="0.9598" style="stop-color:#533327"/>
					<stop  offset="1" style="stop-color:#3F2118"/>
				</linearGradient>
				<path class="st10" d="M1718.51,1686.76c15.2-5.97,19.55-5.97,19.55-0.54c0,2.71-3.26,4.88-14.66,9.22
					c-8.14,3.26-26.6,9.78-43.97,16.29l-30.94,12.48l-1.08,8.69c-1.63,11.94-9.77,22.25-20.63,26.6c-9.77,3.8-20.63,4.34-26.06,1.08
					c-4.88-2.71-4.88-11.94,0-17.37c3.8-4.34,18.46-14.65,27.14-19.54l4.35-2.17l-3.26-14.11c-3.26-12.49-3.26-14.66-0.54-20.63
					c3.25-7.06,8.68-11.4,13.57-11.4c1.08,0,2.17,0,3.25,0.54c5.43,2.17,5.43,5.43,0.55,8.15c-5.97,3.25-7.6,9.77-4.89,20.08
					c2.72,10.31,3.8,11.94,7.6,9.23c1.63-1.09,15.2-6.52,30.4-12.49s32.02-11.4,40.17-14.65L1718.51,1686.76z M1621.35,1748.1
					c8.14-5.43,14.66-16.29,9.77-16.29c-2.17,0-21.17,14.12-23.34,17.37c-1.63,2.72-1.09,3.26,3.26,3.26c2.71,0,7.6-1.63,10.85-3.8
					L1621.35,1748.1z"/>
				<linearGradient id="SVGID_12_" gradientUnits="userSpaceOnUse" x1="1816.8064" y1="1793.0381" x2="1702.1659" y2="1726.8503">
					<stop  offset="0" style="stop-color:#3F2118"/>
					<stop  offset="0.0839" style="stop-color:#634132"/>
					<stop  offset="0.1803" style="stop-color:#8D664E"/>
					<stop  offset="0.2728" style="stop-color:#B58866"/>
					<stop  offset="0.3589" style="stop-color:#D4A579"/>
					<stop  offset="0.4362" style="stop-color:#E9B886"/>
					<stop  offset="0.4972" style="stop-color:#F4C18B"/>
					<stop  offset="0.5706" style="stop-color:#EBB987"/>
					<stop  offset="0.6468" style="stop-color:#DAAA7D"/>
					<stop  offset="0.7242" style="stop-color:#C0926D"/>
					<stop  offset="0.8024" style="stop-color:#9F7559"/>
					<stop  offset="0.8813" style="stop-color:#795441"/>
					<stop  offset="0.9598" style="stop-color:#533327"/>
					<stop  offset="1" style="stop-color:#3F2118"/>
				</linearGradient>
				<path class="st11" d="M1874.28,1683.5c1.63,1.09,3.25,2.72,3.25,3.8c0,1.63-2.71,4.35-7.59,8.14
					c-13.03,10.32-32.03,20.63-48.32,27.15c-13.57,5.42-37.45,11.39-51.02,13.02c-4.88,0.55-11.4,2.72-14.66,4.89
					c-14.65,9.23-28.22,12.48-33.11,8.14c-3.25-2.71-4.34-1.63-37.99,45.6c-15.75,22.25-29.86,41.25-31.49,42.34
					c-3.8,3.25-8.14,3.25-9.77,0c-0.54-1.63,0-5.43,1.63-8.69c5.97-13.03,46.68-84.14,67.85-118.33
					c18.46-29.86,23.34-36.37,27.14-36.91c0.55,0,1.09,0,1.63,0c2.17,0,3.8,0.54,4.34,1.62c1.09,2.18-9.22,20.63-31.48,57
					c-3.8,5.97-6.51,10.86-5.97,10.86c0.54,0,5.97-6.52,11.94-14.66c24.97-32.03,49.94-52.11,65.14-52.11
					c18.46,0,18.46,17.91,0,39.63l-7.6,9.22l13.57-3.25c24.43-5.43,40.71-11.4,67.85-30.94c9.77-7.06,13.03-8.69,15.74-7.6
					L1874.28,1683.5z M1750.51,1729.1c9.22,0,37.45-30.4,35.28-40.71c-0.54-3.8-2.17-3.26-7.06-1.09
					c-10.85,4.89-37.99,28.77-46.68,42.34l-2.17,3.26l8.14-2.17c4.34-1.09,9.77-2.17,12.49-2.17V1729.1z"/>
				<linearGradient id="SVGID_13_" gradientUnits="userSpaceOnUse" x1="1973.5254" y1="1743.2675" x2="1857.799" y2="1676.4528">
					<stop  offset="0" style="stop-color:#3F2118"/>
					<stop  offset="0.0839" style="stop-color:#634132"/>
					<stop  offset="0.1803" style="stop-color:#8D664E"/>
					<stop  offset="0.2728" style="stop-color:#B58866"/>
					<stop  offset="0.3589" style="stop-color:#D4A579"/>
					<stop  offset="0.4362" style="stop-color:#E9B886"/>
					<stop  offset="0.4972" style="stop-color:#F4C18B"/>
					<stop  offset="0.5706" style="stop-color:#EBB987"/>
					<stop  offset="0.6468" style="stop-color:#DAAA7D"/>
					<stop  offset="0.7242" style="stop-color:#C0926D"/>
					<stop  offset="0.8024" style="stop-color:#9F7559"/>
					<stop  offset="0.8813" style="stop-color:#795441"/>
					<stop  offset="0.9598" style="stop-color:#533327"/>
					<stop  offset="1" style="stop-color:#3F2118"/>
				</linearGradient>
				<path class="st12" d="M1992.56,1687.85c10.32-7.06,13.03-6.52,13.03-0.55c0,1.09-2.17,3.8-5.97,7.6
					c-10.86,10.86-31.48,26.6-44.51,34.2c-23.88,13.57-37.45,15.2-48.31,6.51c-5.97-4.88-6.51-6.51-6.51-14.65v-9.23l-13.03,9.77
					c-24.97,19-42.88,25.51-52.65,19.54c-13.57-8.14,4.88-41.25,31.48-56.45c7.6-4.34,14.66-6.52,20.63-6.52
					c7.6,0,13.57,3.26,16.82,9.78l2.72,5.42l5.43-4.34c5.97-4.88,8.14-5.43,11.39-2.17c2.18,2.17,1.63,4.34-3.25,13.03
					c-7.06,13.02-9.23,22.8-5.97,27.68c2.17,2.71,3.8,3.26,10.31,2.71c12.48-1.08,27.68-9.22,52.65-29.31
					c7.06-5.43,12.49-9.77,16.83-12.48L1992.56,1687.85z M1883.46,1711.73c12.48-9.23,13.03-9.77,11.4-15.2
					c-1.09-3.26-2.72-6.51-3.8-7.06c-0.54-0.54-1.63-1.08-2.72-1.08c-11.94-0.54-41.79,24.97-45.59,40.71
					c-1.63,7.06,1.63,6.51,15.74-1.63c5.97-3.8,16.83-10.86,23.88-16.28L1883.46,1711.73z"/>
			</g>
		</g>
		<g>
			<linearGradient id="SVGID_14_" gradientUnits="userSpaceOnUse" x1="161.0127" y1="1485.6606" x2="-16.0842" y2="1383.4137">
				<stop  offset="0" style="stop-color:#3F2118"/>
				<stop  offset="0.0839" style="stop-color:#634132"/>
				<stop  offset="0.1803" style="stop-color:#8D664E"/>
				<stop  offset="0.2728" style="stop-color:#B58866"/>
				<stop  offset="0.3589" style="stop-color:#D4A579"/>
				<stop  offset="0.4362" style="stop-color:#E9B886"/>
				<stop  offset="0.4972" style="stop-color:#F4C18B"/>
				<stop  offset="0.5706" style="stop-color:#EBB987"/>
				<stop  offset="0.6468" style="stop-color:#DAAA7D"/>
				<stop  offset="0.7242" style="stop-color:#C0926D"/>
				<stop  offset="0.8024" style="stop-color:#9F7559"/>
				<stop  offset="0.8813" style="stop-color:#795441"/>
				<stop  offset="0.9598" style="stop-color:#533327"/>
				<stop  offset="1" style="stop-color:#3F2118"/>
			</linearGradient>
			<path class="st13" d="M172.71,1350.07H3.17L0,1380.53h3.47c1.28-7.19,3.9-13.22,7.8-18.09c3.9-4.87,10.11-7.31,18.58-7.31h43.19
				v205.12c0,1.71-0.37,3.17-0.97,4.45c-0.43,1.28-1.16,2.38-2.19,3.35c-1.1,0.91-2.68,1.4-4.81,1.4v3.17h45.75v-3.17
				c-2.13,0-3.72-0.49-4.75-1.4c-1.1-0.97-1.95-2.07-2.56-3.35c-0.61-1.28-0.97-2.74-0.97-4.45v-205.12h43.5
				c8.47,0,14.62,2.44,18.46,7.31c3.78,4.87,6.46,10.9,7.92,18.09h3.17L172.71,1350.07z"/>
			<linearGradient id="SVGID_15_" gradientUnits="userSpaceOnUse" x1="393.1937" y1="1526.6802" x2="166.8429" y2="1395.9965">
				<stop  offset="0" style="stop-color:#3F2118"/>
				<stop  offset="0.0839" style="stop-color:#634132"/>
				<stop  offset="0.1803" style="stop-color:#8D664E"/>
				<stop  offset="0.2728" style="stop-color:#B58866"/>
				<stop  offset="0.3589" style="stop-color:#D4A579"/>
				<stop  offset="0.4362" style="stop-color:#E9B886"/>
				<stop  offset="0.4972" style="stop-color:#F4C18B"/>
				<stop  offset="0.5706" style="stop-color:#EBB987"/>
				<stop  offset="0.6468" style="stop-color:#DAAA7D"/>
				<stop  offset="0.7242" style="stop-color:#C0926D"/>
				<stop  offset="0.8024" style="stop-color:#9F7559"/>
				<stop  offset="0.8813" style="stop-color:#795441"/>
				<stop  offset="0.9598" style="stop-color:#533327"/>
				<stop  offset="1" style="stop-color:#3F2118"/>
			</linearGradient>
			<path class="st14" d="M359.73,1357.99c0.43-1.04,1.22-2.07,2.38-3.05c1.16-0.91,2.68-1.4,4.57-1.4v-3.47h-45.69v3.47
				c2.13,0,3.78,0.49,4.93,1.4c1.16,0.97,1.95,2.01,2.38,3.05c0.61,1.28,0.91,2.74,0.91,4.45v96.5h-98.08v-96.5
				c0-1.71,0.3-3.17,0.97-4.45c0.43-1.04,1.22-2.07,2.38-3.05c1.16-0.91,2.68-1.4,4.57-1.4v-3.47h-45.69v3.47
				c2.13,0,3.72,0.49,4.93,1.4c1.16,0.97,1.95,2.01,2.38,3.05c0.61,1.28,0.91,2.74,0.91,4.45v197.81c0,1.71-0.3,3.17-0.91,4.45
				c-0.43,1.28-1.22,2.38-2.38,3.35c-1.22,0.91-2.8,1.4-4.93,1.4v3.17h45.69v-3.17c-1.89,0-3.41-0.49-4.57-1.4
				c-1.16-0.97-1.95-2.07-2.38-3.35c-0.67-1.28-0.97-2.74-0.97-4.45v-96.19h98.08v96.19c0,1.71-0.3,3.17-0.91,4.45
				c-0.43,1.28-1.22,2.38-2.38,3.35c-1.16,0.91-2.8,1.4-4.93,1.4v3.17h45.69v-3.17c-1.89,0-3.41-0.49-4.57-1.4
				c-1.16-0.97-1.95-2.07-2.38-3.35c-0.67-1.28-0.97-2.74-0.97-4.45v-197.81C358.76,1360.73,359.06,1359.27,359.73,1357.99z"/>
			<linearGradient id="SVGID_16_" gradientUnits="userSpaceOnUse" x1="579.4132" y1="1522.0592" x2="369.5971" y2="1400.9219">
				<stop  offset="0" style="stop-color:#3F2118"/>
				<stop  offset="0.0839" style="stop-color:#634132"/>
				<stop  offset="0.1803" style="stop-color:#8D664E"/>
				<stop  offset="0.2728" style="stop-color:#B58866"/>
				<stop  offset="0.3589" style="stop-color:#D4A579"/>
				<stop  offset="0.4362" style="stop-color:#E9B886"/>
				<stop  offset="0.4972" style="stop-color:#F4C18B"/>
				<stop  offset="0.5706" style="stop-color:#EBB987"/>
				<stop  offset="0.6468" style="stop-color:#DAAA7D"/>
				<stop  offset="0.7242" style="stop-color:#C0926D"/>
				<stop  offset="0.8024" style="stop-color:#9F7559"/>
				<stop  offset="0.8813" style="stop-color:#795441"/>
				<stop  offset="0.9598" style="stop-color:#533327"/>
				<stop  offset="1" style="stop-color:#3F2118"/>
			</linearGradient>
			<path class="st15" d="M542.13,1560.24c-3.96,4.87-10.11,7.31-18.58,7.31h-86.99v-107.65h68.23c3.17,0.18,6.03,1.04,8.59,2.56
				c2.13,1.28,4.02,3.29,5.73,6.03c1.71,2.74,2.56,6.64,2.56,11.76h3.17v-45.75h-3.17c0,5.06-0.85,9.02-2.56,11.76
				c-1.71,2.74-3.59,4.75-5.73,6.03c-2.56,1.46-5.42,2.31-8.59,2.56h-68.23v-99.73h86.99c8.47,0,14.62,2.44,18.58,7.31
				c3.9,4.87,6.52,10.9,7.74,18.09h3.53l-3.17-30.16H398.78v3.17c2.07,0,3.72,0.49,4.93,1.4c1.16,0.97,1.95,2.01,2.38,3.05
				c0.61,1.28,0.91,2.74,0.91,4.45v197.81c0,1.71-0.3,3.17-0.91,4.45c-0.43,1.28-1.22,2.38-2.38,3.35c-1.22,0.91-2.86,1.4-4.93,1.4
				v3.17h151.45l3.17-30.16h-3.53C548.64,1549.46,546.03,1555.37,542.13,1560.24z"/>
			<linearGradient id="SVGID_17_" gradientUnits="userSpaceOnUse" x1="836.2138" y1="1514.0879" x2="659.3206" y2="1411.9586">
				<stop  offset="0" style="stop-color:#3F2118"/>
				<stop  offset="0.0839" style="stop-color:#634132"/>
				<stop  offset="0.1803" style="stop-color:#8D664E"/>
				<stop  offset="0.2728" style="stop-color:#B58866"/>
				<stop  offset="0.3589" style="stop-color:#D4A579"/>
				<stop  offset="0.4362" style="stop-color:#E9B886"/>
				<stop  offset="0.4972" style="stop-color:#F4C18B"/>
				<stop  offset="0.5706" style="stop-color:#EBB987"/>
				<stop  offset="0.6468" style="stop-color:#DAAA7D"/>
				<stop  offset="0.7242" style="stop-color:#C0926D"/>
				<stop  offset="0.8024" style="stop-color:#9F7559"/>
				<stop  offset="0.8813" style="stop-color:#795441"/>
				<stop  offset="0.9598" style="stop-color:#533327"/>
				<stop  offset="1" style="stop-color:#3F2118"/>
			</linearGradient>
			<path class="st16" d="M819.74,1491.04c-3.78-6.76-8.96-12.73-15.53-17.79c-6.58-5.12-14.07-9.63-22.54-13.65
				c-8.47-4.02-17.48-8.28-26.99-12.73c-7.61-3.59-14.99-7.07-22.05-10.48c-7.13-3.35-13.4-7.01-18.89-10.97
				c-5.54-3.9-9.93-8.41-13.22-13.65c-3.29-5.18-4.87-11.27-4.87-18.21c0-6.34,1.28-12.06,3.78-17.18
				c2.56-5.06,6.09-9.38,10.66-12.98c4.51-3.59,9.93-6.4,16.2-8.47c6.21-1.95,13.04-2.98,20.47-2.98c19.01,0,33.93,5.12,44.78,15.41
				c10.78,10.23,18.28,25.1,22.54,44.59h3.47l-4.14-39.35c-9.08-8.71-19.43-15.23-30.95-19.68c-11.51-4.45-23.64-6.46-36.37-6.03
				c-11.39,0-21.75,1.4-30.95,4.26c-9.2,2.86-17.06,7.01-23.64,12.37c-6.58,5.42-11.57,11.82-15.11,19.19
				c-3.47,7.43-5.24,15.84-5.24,25.1c0,10.42,2.38,19.25,7.19,26.56c4.75,7.25,10.54,13.46,17.42,18.52
				c6.88,5.12,14.01,9.26,21.26,12.55c7.31,3.29,13.52,6.09,18.58,8.41c6.15,2.8,12.85,5.79,20.16,9.08s14.13,7.01,20.47,11.27
				c6.4,4.2,11.7,9.14,16.08,14.74c4.33,5.6,6.46,12.12,6.46,19.56c0,12.24-4.63,22.42-13.95,30.46
				c-9.32,8.04-22.24,12.06-38.75,12.06c-8.22,0-16.14-0.97-23.64-2.86c-7.49-1.89-14.44-5.24-20.77-9.99
				c-6.4-4.75-12.06-11.21-17-19.37c-5-8.16-8.96-18.34-11.94-30.64h-3.47l3.84,38.74c1.46,1.46,4.02,3.9,7.61,7.13
				c3.59,3.29,8.29,6.58,14.13,9.87c5.79,3.29,12.85,6.15,21.26,8.59c8.35,2.38,18.15,3.66,29.36,3.66
				c24.98,0,44.53-5.24,58.73-15.6c14.19-10.36,21.26-25.28,21.26-44.78C825.46,1506.08,823.58,1497.8,819.74,1491.04z"/>
			<linearGradient id="SVGID_18_" gradientUnits="userSpaceOnUse" x1="1052.4485" y1="1527.5592" x2="825.5952" y2="1396.5854">
				<stop  offset="0" style="stop-color:#3F2118"/>
				<stop  offset="0.0839" style="stop-color:#634132"/>
				<stop  offset="0.1803" style="stop-color:#8D664E"/>
				<stop  offset="0.2728" style="stop-color:#B58866"/>
				<stop  offset="0.3589" style="stop-color:#D4A579"/>
				<stop  offset="0.4362" style="stop-color:#E9B886"/>
				<stop  offset="0.4972" style="stop-color:#F4C18B"/>
				<stop  offset="0.5706" style="stop-color:#EBB987"/>
				<stop  offset="0.6468" style="stop-color:#DAAA7D"/>
				<stop  offset="0.7242" style="stop-color:#C0926D"/>
				<stop  offset="0.8024" style="stop-color:#9F7559"/>
				<stop  offset="0.8813" style="stop-color:#795441"/>
				<stop  offset="0.9598" style="stop-color:#533327"/>
				<stop  offset="1" style="stop-color:#3F2118"/>
			</linearGradient>
			<path class="st17" d="M1020.1,1566.76c-2.13-1.83-3.72-3.35-4.75-4.63l-91.44-119.71l58.12-61.89c2.74-2.92,5.97-5.97,9.69-9.02
				c3.66-3.11,7.43-6.03,11.27-8.77c3.78-2.74,7.55-4.93,11.27-6.64c3.66-1.71,6.82-2.56,9.32-2.56v-3.17h-45.69v3.17
				c2.56,0,4.57,0.97,6.03,2.86c1.46,1.46,2.19,3.47,2.19,6.03c0,2.13-0.85,4.69-2.68,7.8c-1.77,3.05-4.81,6.82-9.02,11.27
				l-74.02,78.1c12.73,16.27,24.67,31.5,35.88,45.69c4.69,6.15,9.44,12.37,14.32,18.58c4.87,6.27,9.44,12.18,13.77,17.79
				c4.39,5.6,8.29,10.66,11.76,15.23c3.53,4.57,6.34,8.22,8.41,10.97c2.32,3.17,5.6,4.75,9.87,4.75h32.04v-3.17
				C1024.37,1569.44,1022.24,1568.53,1020.1,1566.76z M891.2,1357.99c0.43-1.04,1.22-2.07,2.38-3.05c1.16-0.91,2.74-1.4,4.63-1.4
				v-3.47h-45.75v3.47c2.13,0,3.78,0.49,4.93,1.4c1.16,0.97,1.95,2.01,2.38,3.05c0.67,1.28,0.97,2.74,0.97,4.45v197.81
				c0,1.71-0.3,3.17-0.97,4.45c-0.43,1.28-1.22,2.38-2.38,3.35c-1.16,0.91-2.8,1.4-4.93,1.4v3.17h45.75v-3.17
				c-1.89,0-3.47-0.49-4.63-1.4c-1.16-0.97-1.95-2.07-2.38-3.35c-0.61-1.28-0.97-2.74-0.97-4.45v-197.81
				C890.22,1360.73,890.59,1359.27,891.2,1357.99z"/>
			<linearGradient id="SVGID_19_" gradientUnits="userSpaceOnUse" x1="1132.0834" y1="1499.048" x2="1001.4531" y2="1423.6285">
				<stop  offset="0" style="stop-color:#3F2118"/>
				<stop  offset="0.0839" style="stop-color:#634132"/>
				<stop  offset="0.1803" style="stop-color:#8D664E"/>
				<stop  offset="0.2728" style="stop-color:#B58866"/>
				<stop  offset="0.3589" style="stop-color:#D4A579"/>
				<stop  offset="0.4362" style="stop-color:#E9B886"/>
				<stop  offset="0.4972" style="stop-color:#F4C18B"/>
				<stop  offset="0.5706" style="stop-color:#EBB987"/>
				<stop  offset="0.6468" style="stop-color:#DAAA7D"/>
				<stop  offset="0.7242" style="stop-color:#C0926D"/>
				<stop  offset="0.8024" style="stop-color:#9F7559"/>
				<stop  offset="0.8813" style="stop-color:#795441"/>
				<stop  offset="0.9598" style="stop-color:#533327"/>
				<stop  offset="1" style="stop-color:#3F2118"/>
			</linearGradient>
			<path class="st18" d="M1082.67,1357.99c0.43-1.04,1.22-2.07,2.38-3.05c1.16-0.91,2.68-1.4,4.57-1.4v-3.47h-45.69v3.47
				c2.13,0,3.78,0.49,4.93,1.4c1.16,0.97,1.95,2.01,2.38,3.05c0.61,1.28,0.91,2.74,0.91,4.45v197.81c0,1.71-0.3,3.17-0.91,4.45
				c-0.43,1.28-1.22,2.38-2.38,3.35c-1.16,0.91-2.8,1.4-4.93,1.4v3.17h45.69v-3.17c-1.89,0-3.41-0.49-4.57-1.4
				c-1.16-0.97-1.95-2.07-2.38-3.35c-0.67-1.28-0.97-2.74-0.97-4.45v-197.81C1081.69,1360.73,1082,1359.27,1082.67,1357.99z"/>
			<linearGradient id="SVGID_20_" gradientUnits="userSpaceOnUse" x1="1318.0037" y1="1501.0936" x2="1099.5399" y2="1374.9636">
				<stop  offset="0" style="stop-color:#3F2118"/>
				<stop  offset="0.0839" style="stop-color:#634132"/>
				<stop  offset="0.1803" style="stop-color:#8D664E"/>
				<stop  offset="0.2728" style="stop-color:#B58866"/>
				<stop  offset="0.3589" style="stop-color:#D4A579"/>
				<stop  offset="0.4362" style="stop-color:#E9B886"/>
				<stop  offset="0.4972" style="stop-color:#F4C18B"/>
				<stop  offset="0.5706" style="stop-color:#EBB987"/>
				<stop  offset="0.6468" style="stop-color:#DAAA7D"/>
				<stop  offset="0.7242" style="stop-color:#C0926D"/>
				<stop  offset="0.8024" style="stop-color:#9F7559"/>
				<stop  offset="0.8813" style="stop-color:#795441"/>
				<stop  offset="0.9598" style="stop-color:#533327"/>
				<stop  offset="1" style="stop-color:#3F2118"/>
			</linearGradient>
			<path class="st19" d="M1260.74,1350.07v3.47c5.12,0,9.02,0.85,11.76,2.56c2.74,1.71,4.75,3.59,6.03,5.73
				c1.52,2.32,2.31,5.06,2.56,8.22v147.67l-115.26-164.79c-1.28-1.71-3.05-2.56-5.42-2.56h-46.66v3.17c5.12,0,9.02,0.85,11.76,2.56
				c2.74,1.71,4.75,3.59,6.03,5.73c1.52,2.5,2.31,5.36,2.56,8.53v168.93c1.71-2.5,3.41-5,5.06-7.37v-162.47l137.07,197.08
				c1.1-1.1,2.19-2.19,3.29-3.35c2.32-2.38,4.51-4.69,6.64-6.88v-186.23c0.24-3.17,1.1-5.91,2.56-8.22
				c1.28-2.13,3.29-4.02,6.03-5.73c2.74-1.71,6.7-2.56,11.76-2.56v-3.47H1260.74z"/>
			<linearGradient id="SVGID_21_" gradientUnits="userSpaceOnUse" x1="1604.573" y1="1522.0592" x2="1394.757" y2="1400.9219">
				<stop  offset="0" style="stop-color:#3F2118"/>
				<stop  offset="0.0839" style="stop-color:#634132"/>
				<stop  offset="0.1803" style="stop-color:#8D664E"/>
				<stop  offset="0.2728" style="stop-color:#B58866"/>
				<stop  offset="0.3589" style="stop-color:#D4A579"/>
				<stop  offset="0.4362" style="stop-color:#E9B886"/>
				<stop  offset="0.4972" style="stop-color:#F4C18B"/>
				<stop  offset="0.5706" style="stop-color:#EBB987"/>
				<stop  offset="0.6468" style="stop-color:#DAAA7D"/>
				<stop  offset="0.7242" style="stop-color:#C0926D"/>
				<stop  offset="0.8024" style="stop-color:#9F7559"/>
				<stop  offset="0.8813" style="stop-color:#795441"/>
				<stop  offset="0.9598" style="stop-color:#533327"/>
				<stop  offset="1" style="stop-color:#3F2118"/>
			</linearGradient>
			<path class="st20" d="M1567.29,1560.24c-3.9,4.87-10.11,7.31-18.52,7.31h-87.05v-107.65H1530c3.17,0.18,6.03,1.04,8.59,2.56
				c2.07,1.28,4.02,3.29,5.73,6.03c1.65,2.74,2.5,6.64,2.5,11.76h3.17v-45.75h-3.17c0,5.06-0.85,9.02-2.5,11.76
				c-1.71,2.74-3.66,4.75-5.73,6.03c-2.56,1.46-5.42,2.31-8.59,2.56h-68.29v-99.73h87.05c8.41,0,14.62,2.44,18.52,7.31
				c3.96,4.87,6.52,10.9,7.8,18.09h3.47l-3.17-30.16h-151.45v3.17c2.13,0,3.78,0.49,4.93,1.4c1.16,0.97,1.95,2.01,2.38,3.05
				c0.67,1.28,0.97,2.74,0.97,4.45v96.31c0.49,0.61,0.85,1.16,1.22,1.71c4.26,6.88,4.26,15.47-1.22,30.7v69.08
				c0,1.71-0.3,3.17-0.97,4.45c-0.43,1.28-1.22,2.38-2.38,3.35c-1.16,0.91-2.8,1.4-4.93,1.4v3.17h151.45l3.17-30.16h-3.47
				C1573.8,1549.46,1571.25,1555.37,1567.29,1560.24z"/>
			<linearGradient id="SVGID_22_" gradientUnits="userSpaceOnUse" x1="1752.3011" y1="1485.6605" x2="1575.2042" y2="1383.4136">
				<stop  offset="0" style="stop-color:#3F2118"/>
				<stop  offset="0.0839" style="stop-color:#634132"/>
				<stop  offset="0.1803" style="stop-color:#8D664E"/>
				<stop  offset="0.2728" style="stop-color:#B58866"/>
				<stop  offset="0.3589" style="stop-color:#D4A579"/>
				<stop  offset="0.4362" style="stop-color:#E9B886"/>
				<stop  offset="0.4972" style="stop-color:#F4C18B"/>
				<stop  offset="0.5706" style="stop-color:#EBB987"/>
				<stop  offset="0.6468" style="stop-color:#DAAA7D"/>
				<stop  offset="0.7242" style="stop-color:#C0926D"/>
				<stop  offset="0.8024" style="stop-color:#9F7559"/>
				<stop  offset="0.8813" style="stop-color:#795441"/>
				<stop  offset="0.9598" style="stop-color:#533327"/>
				<stop  offset="1" style="stop-color:#3F2118"/>
			</linearGradient>
			<path class="st21" d="M1764,1350.07h-169.54l-3.17,30.46h3.47c1.28-7.19,3.84-13.22,7.8-18.09c3.9-4.87,10.11-7.31,18.58-7.31
				h43.13v205.12c0,1.71-0.3,3.17-0.91,4.45c-0.43,1.28-1.16,2.38-2.25,3.35c-1.04,0.91-2.62,1.4-4.75,1.4v3.17h45.75v-3.17
				c-2.13,0-3.72-0.49-4.81-1.4c-1.04-0.97-1.89-2.07-2.5-3.35c-0.67-1.28-0.97-2.74-0.97-4.45v-205.12h43.5
				c8.47,0,14.62,2.44,18.4,7.31c3.84,4.87,6.46,10.9,7.98,18.09h3.17L1764,1350.07z"/>
			<linearGradient id="SVGID_23_" gradientUnits="userSpaceOnUse" x1="1872.8086" y1="1499.048" x2="1742.1782" y2="1423.6285">
				<stop  offset="0" style="stop-color:#3F2118"/>
				<stop  offset="0.0839" style="stop-color:#634132"/>
				<stop  offset="0.1803" style="stop-color:#8D664E"/>
				<stop  offset="0.2728" style="stop-color:#B58866"/>
				<stop  offset="0.3589" style="stop-color:#D4A579"/>
				<stop  offset="0.4362" style="stop-color:#E9B886"/>
				<stop  offset="0.4972" style="stop-color:#F4C18B"/>
				<stop  offset="0.5706" style="stop-color:#EBB987"/>
				<stop  offset="0.6468" style="stop-color:#DAAA7D"/>
				<stop  offset="0.7242" style="stop-color:#C0926D"/>
				<stop  offset="0.8024" style="stop-color:#9F7559"/>
				<stop  offset="0.8813" style="stop-color:#795441"/>
				<stop  offset="0.9598" style="stop-color:#533327"/>
				<stop  offset="1" style="stop-color:#3F2118"/>
			</linearGradient>
			<path class="st22" d="M1823.33,1357.99c0.43-1.04,1.22-2.07,2.44-3.05c1.16-0.91,2.68-1.4,4.57-1.4v-3.47h-45.69v3.47
				c2.07,0,3.72,0.49,4.87,1.4c1.16,0.97,2.01,2.01,2.38,3.05c0.67,1.28,0.97,2.74,0.97,4.45v197.81c0,1.71-0.3,3.17-0.97,4.45
				c-0.37,1.28-1.22,2.38-2.38,3.35c-1.16,0.91-2.8,1.4-4.87,1.4v3.17h45.69v-3.17c-1.89,0-3.41-0.49-4.57-1.4
				c-1.22-0.97-2.01-2.07-2.44-3.35c-0.61-1.28-0.91-2.74-0.91-4.45v-197.81C1822.42,1360.73,1822.72,1359.27,1823.33,1357.99z"/>
			<linearGradient id="SVGID_24_" gradientUnits="userSpaceOnUse" x1="2096.553" y1="1537.8115" x2="1865.9155" y2="1404.6528">
				<stop  offset="0" style="stop-color:#3F2118"/>
				<stop  offset="0.0839" style="stop-color:#634132"/>
				<stop  offset="0.1803" style="stop-color:#8D664E"/>
				<stop  offset="0.2728" style="stop-color:#B58866"/>
				<stop  offset="0.3589" style="stop-color:#D4A579"/>
				<stop  offset="0.4362" style="stop-color:#E9B886"/>
				<stop  offset="0.4972" style="stop-color:#F4C18B"/>
				<stop  offset="0.5706" style="stop-color:#EBB987"/>
				<stop  offset="0.6468" style="stop-color:#DAAA7D"/>
				<stop  offset="0.7242" style="stop-color:#C0926D"/>
				<stop  offset="0.8024" style="stop-color:#9F7559"/>
				<stop  offset="0.8813" style="stop-color:#795441"/>
				<stop  offset="0.9598" style="stop-color:#533327"/>
				<stop  offset="1" style="stop-color:#3F2118"/>
			</linearGradient>
			<path class="st23" d="M2073.23,1573.58c-8.04,4.87-16.51,8.22-25.4,10.17c-8.89,1.89-17.67,2.86-26.32,2.86
				c-6.15,0-12.06-0.43-17.67-1.16c-5.6-0.73-10.66-1.64-15.23-2.68c-4.51-1.04-8.35-2.19-11.39-3.35
				c-3.11-1.16-5.24-2.25-6.52-3.29h0.61c18.82-0.85,34.72-4.69,47.64-11.45c12.91-6.76,23.33-15.53,31.25-26.2
				c7.98-10.66,13.65-22.72,17.18-36.06c3.47-13.34,5.24-26.99,5.24-40.94c0-14.38-1.89-28.45-5.54-42.22
				c-3.72-13.77-9.81-26.01-18.28-36.67c-8.47-10.66-19.62-19.31-33.32-25.89c-13.77-6.52-30.83-9.81-51.11-9.81
				c-20.35,0-37.4,3.29-51.17,9.81c-13.71,6.58-24.86,15.23-33.32,25.89c-8.47,10.66-14.56,22.91-18.22,36.67
				c-3.72,13.77-5.6,27.84-5.6,42.22c0,14.19,1.83,28.08,5.42,41.61c3.59,13.52,9.5,25.65,17.79,36.37
				c8.22,10.66,19.01,19.31,32.35,26.01c13.34,6.64,29.79,10.17,49.22,10.66c10.17,8.22,21.26,15.41,33.32,21.57
				c12.12,6.15,25.77,9.2,41,9.2c4.63,0,9.32-0.3,13.95-0.97l25.71-30.46L2073.23,1573.58z M1932.44,1563.59
				c-9.44-5-17.48-12.12-24.12-21.44c-6.7-9.32-11.82-20.77-15.41-34.3c-3.59-13.52-5.42-29-5.42-46.36
				c0-17.36,1.83-32.77,5.42-46.36c3.59-13.52,8.71-25.04,15.41-34.42c6.64-9.44,14.68-16.57,24.12-21.44
				c9.38-4.87,20.04-7.31,31.92-7.31c23.7,0,42.4,9.38,56.17,28.08c13.77,18.76,20.65,45.87,20.65,81.45
				c0,35.58-6.88,62.69-20.65,81.45c-13.77,18.7-32.47,28.08-56.17,28.08C1952.48,1571.02,1941.82,1568.53,1932.44,1563.59z"/>
			<linearGradient id="SVGID_25_" gradientUnits="userSpaceOnUse" x1="2278.749" y1="1496.9629" x2="2080.2803" y2="1382.377">
				<stop  offset="0" style="stop-color:#3F2118"/>
				<stop  offset="0.0839" style="stop-color:#634132"/>
				<stop  offset="0.1803" style="stop-color:#8D664E"/>
				<stop  offset="0.2728" style="stop-color:#B58866"/>
				<stop  offset="0.3589" style="stop-color:#D4A579"/>
				<stop  offset="0.4362" style="stop-color:#E9B886"/>
				<stop  offset="0.4972" style="stop-color:#F4C18B"/>
				<stop  offset="0.5706" style="stop-color:#EBB987"/>
				<stop  offset="0.6468" style="stop-color:#DAAA7D"/>
				<stop  offset="0.7242" style="stop-color:#C0926D"/>
				<stop  offset="0.8024" style="stop-color:#9F7559"/>
				<stop  offset="0.8813" style="stop-color:#795441"/>
				<stop  offset="0.9598" style="stop-color:#533327"/>
				<stop  offset="1" style="stop-color:#3F2118"/>
			</linearGradient>
			<path class="st24" d="M2235.82,1350.37v3.17c5.06,0,8.95,0.85,11.7,2.56c2.74,1.71,4.81,3.59,6.03,5.73
				c1.52,2.5,2.38,5.36,2.56,8.53v120.01c0,14.01-1.4,26.62-4.14,37.95c-2.74,11.33-8.04,20.59-15.84,27.78
				c-5.97,4.87-12.49,8.65-19.68,11.27c-7.25,2.68-14.74,3.9-22.54,3.66c-12.31,0-22.24-2.19-29.73-6.64
				c-7.49-4.45-13.34-10.05-17.42-16.81c-4.14-6.82-6.82-14.19-8.1-22.24c-1.28-8.04-1.89-15.72-1.89-22.91v-139.99
				c0-1.71,0.3-3.17,0.91-4.45c0.43-1.04,1.22-2.07,2.38-3.05c1.16-0.91,2.68-1.4,4.63-1.4v-3.47h-45.75v3.47
				c2.13,0,3.78,0.49,4.93,1.4c1.16,0.97,1.95,2.01,2.38,3.05c0.67,1.28,0.97,2.74,0.97,4.45v129.52c0,16.33,2.13,29.85,6.52,40.69
				c4.33,10.78,10.11,19.37,17.42,25.83c7.31,6.46,15.78,11.03,25.4,13.65c9.63,2.68,19.62,4.02,30.03,4.02
				c14.38,0,26.32-1.95,35.88-5.73c9.5-3.84,17.12-9.38,22.84-16.69c5.73-7.31,9.81-16.27,12.24-26.99
				c2.38-10.66,3.66-22.78,3.66-36.37v-120.01c0.18-3.17,1.04-6.03,2.5-8.53c1.28-2.13,3.29-4.02,6.03-5.73
				c2.74-1.71,6.7-2.56,11.76-2.56v-3.17H2235.82z"/>
			<linearGradient id="SVGID_26_" gradientUnits="userSpaceOnUse" x1="2486.2668" y1="1522.0593" x2="2276.4504" y2="1400.9218">
				<stop  offset="0" style="stop-color:#3F2118"/>
				<stop  offset="0.0839" style="stop-color:#634132"/>
				<stop  offset="0.1803" style="stop-color:#8D664E"/>
				<stop  offset="0.2728" style="stop-color:#B58866"/>
				<stop  offset="0.3589" style="stop-color:#D4A579"/>
				<stop  offset="0.4362" style="stop-color:#E9B886"/>
				<stop  offset="0.4972" style="stop-color:#F4C18B"/>
				<stop  offset="0.5706" style="stop-color:#EBB987"/>
				<stop  offset="0.6468" style="stop-color:#DAAA7D"/>
				<stop  offset="0.7242" style="stop-color:#C0926D"/>
				<stop  offset="0.8024" style="stop-color:#9F7559"/>
				<stop  offset="0.8813" style="stop-color:#795441"/>
				<stop  offset="0.9598" style="stop-color:#533327"/>
				<stop  offset="1" style="stop-color:#3F2118"/>
			</linearGradient>
			<path class="st25" d="M2448.98,1560.24c-3.9,4.87-10.11,7.31-18.58,7.31h-86.99v-107.65h68.29c3.17,0.18,6.03,1.04,8.53,2.56
				c2.13,1.28,4.02,3.29,5.73,6.03c1.71,2.74,2.56,6.64,2.56,11.76h3.17v-45.75h-3.17c0,5.06-0.85,9.02-2.56,11.76
				c-1.71,2.74-3.59,4.75-5.73,6.03c-2.5,1.46-5.36,2.31-8.53,2.56h-68.29v-99.73h86.99c8.47,0,14.68,2.44,18.58,7.31
				c3.9,4.87,6.52,10.9,7.8,18.09h3.47l-3.17-30.16h-151.45v3.17c2.13,0,3.78,0.49,4.93,1.4c1.16,0.97,1.95,2.01,2.38,3.05
				c0.61,1.28,0.91,2.74,0.91,4.45v197.81c0,1.71-0.3,3.17-0.91,4.45c-0.43,1.28-1.22,2.38-2.38,3.35c-1.16,0.91-2.8,1.4-4.93,1.4
				v3.17h151.45l3.17-30.16h-3.47C2455.5,1549.46,2452.88,1555.37,2448.98,1560.24z"/>
			<linearGradient id="SVGID_27_" gradientUnits="userSpaceOnUse" x1="2633.9492" y1="1485.6343" x2="2456.8982" y2="1383.4137">
				<stop  offset="0" style="stop-color:#3F2118"/>
				<stop  offset="0.0839" style="stop-color:#634132"/>
				<stop  offset="0.1803" style="stop-color:#8D664E"/>
				<stop  offset="0.2728" style="stop-color:#B58866"/>
				<stop  offset="0.3589" style="stop-color:#D4A579"/>
				<stop  offset="0.4362" style="stop-color:#E9B886"/>
				<stop  offset="0.4972" style="stop-color:#F4C18B"/>
				<stop  offset="0.5706" style="stop-color:#EBB987"/>
				<stop  offset="0.6468" style="stop-color:#DAAA7D"/>
				<stop  offset="0.7242" style="stop-color:#C0926D"/>
				<stop  offset="0.8024" style="stop-color:#9F7559"/>
				<stop  offset="0.8813" style="stop-color:#795441"/>
				<stop  offset="0.9598" style="stop-color:#533327"/>
				<stop  offset="1" style="stop-color:#3F2118"/>
			</linearGradient>
			<path class="st26" d="M2645.69,1350.07h-169.54l-3.17,30.46h3.47c1.28-7.19,3.84-13.22,7.8-18.09c3.9-4.87,10.11-7.31,18.58-7.31
				h43.13v205.12c0,1.71-0.3,3.17-0.91,4.45c-0.43,1.28-1.16,2.38-2.25,3.35c-1.04,0.91-2.62,1.4-4.75,1.4v3.17h45.69v-3.17
				c-2.07,0-3.66-0.49-4.75-1.4c-1.04-0.97-1.89-2.07-2.5-3.35c-0.67-1.28-0.97-2.74-0.97-4.45v-205.12h43.5
				c8.47,0,14.62,2.44,18.4,7.31c3.84,4.87,6.46,10.9,7.98,18.09h3.17L2645.69,1350.07z"/>
			<linearGradient id="SVGID_28_" gradientUnits="userSpaceOnUse" x1="2813.0386" y1="1485.6606" x2="2635.9414" y2="1383.4136">
				<stop  offset="0" style="stop-color:#3F2118"/>
				<stop  offset="0.0839" style="stop-color:#634132"/>
				<stop  offset="0.1803" style="stop-color:#8D664E"/>
				<stop  offset="0.2728" style="stop-color:#B58866"/>
				<stop  offset="0.3589" style="stop-color:#D4A579"/>
				<stop  offset="0.4362" style="stop-color:#E9B886"/>
				<stop  offset="0.4972" style="stop-color:#F4C18B"/>
				<stop  offset="0.5706" style="stop-color:#EBB987"/>
				<stop  offset="0.6468" style="stop-color:#DAAA7D"/>
				<stop  offset="0.7242" style="stop-color:#C0926D"/>
				<stop  offset="0.8024" style="stop-color:#9F7559"/>
				<stop  offset="0.8813" style="stop-color:#795441"/>
				<stop  offset="0.9598" style="stop-color:#533327"/>
				<stop  offset="1" style="stop-color:#3F2118"/>
			</linearGradient>
			<path class="st27" d="M2824.73,1350.07h-169.54l-3.17,30.46h3.47c1.28-7.19,3.9-13.22,7.8-18.09c3.9-4.87,10.11-7.31,18.58-7.31
				h43.19v205.12c0,1.71-0.37,3.17-0.97,4.45c-0.43,1.28-1.16,2.38-2.19,3.35c-1.1,0.91-2.68,1.4-4.81,1.4v3.17h45.75v-3.17
				c-2.13,0-3.72-0.49-4.75-1.4c-1.1-0.97-1.95-2.07-2.56-3.35c-0.61-1.28-0.97-2.74-0.97-4.45v-205.12h43.5
				c8.47,0,14.62,2.44,18.46,7.31c3.78,4.87,6.46,10.9,7.92,18.09h3.17L2824.73,1350.07z"/>
			<linearGradient id="SVGID_29_" gradientUnits="userSpaceOnUse" x1="3026.0171" y1="1522.0592" x2="2816.2009" y2="1400.9219">
				<stop  offset="0" style="stop-color:#3F2118"/>
				<stop  offset="0.0839" style="stop-color:#634132"/>
				<stop  offset="0.1803" style="stop-color:#8D664E"/>
				<stop  offset="0.2728" style="stop-color:#B58866"/>
				<stop  offset="0.3589" style="stop-color:#D4A579"/>
				<stop  offset="0.4362" style="stop-color:#E9B886"/>
				<stop  offset="0.4972" style="stop-color:#F4C18B"/>
				<stop  offset="0.5706" style="stop-color:#EBB987"/>
				<stop  offset="0.6468" style="stop-color:#DAAA7D"/>
				<stop  offset="0.7242" style="stop-color:#C0926D"/>
				<stop  offset="0.8024" style="stop-color:#9F7559"/>
				<stop  offset="0.8813" style="stop-color:#795441"/>
				<stop  offset="0.9598" style="stop-color:#533327"/>
				<stop  offset="1" style="stop-color:#3F2118"/>
			</linearGradient>
			<path class="st28" d="M2988.73,1560.24c-3.9,4.87-10.11,7.31-18.58,7.31h-86.99v-107.65h68.29c3.17,0.18,6.03,1.04,8.53,2.56
				c2.13,1.28,4.02,3.29,5.73,6.03c1.71,2.74,2.56,6.64,2.56,11.76h3.17v-45.75h-3.17c0,5.06-0.85,9.02-2.56,11.76
				c-1.71,2.74-3.59,4.75-5.73,6.03c-2.5,1.46-5.36,2.31-8.53,2.56h-68.29v-99.73h86.99c8.47,0,14.68,2.44,18.58,7.31
				c3.9,4.87,6.52,10.9,7.8,18.09h3.47l-3.17-30.16h-151.45v3.17c2.13,0,3.78,0.49,4.93,1.4c1.16,0.97,1.95,2.01,2.38,3.05
				c0.61,1.28,0.91,2.74,0.91,4.45v197.81c0,1.71-0.3,3.17-0.91,4.45c-0.43,1.28-1.22,2.38-2.38,3.35c-1.16,0.91-2.8,1.4-4.93,1.4
				v3.17h151.45l3.17-30.16h-3.47C2995.25,1549.46,2992.63,1555.37,2988.73,1560.24z"/>
		</g>
	</g>
</g>
</svg>
